<svg width="311" height="317" xmlns="http://www.w3.org/2000/svg">
 <!-- Created with Method Draw - http://github.com/duopixel/Method-Draw/ -->
 <g>
  <title>Layer 1</title>
 </g>
 <g>
  <title>background</title>
  <g stroke="null" transform="rotate(180 155.61244201660156,158.66749572753906) " id="svg_2">
   <g stroke="null" id="svg_5">
    <path stroke="null" id="svg_4" stroke-miterlimit="79.840319" marker-end="none" marker-start="none" fill="#000000" stroke-width="0.75" stroke-linecap="round" d="m87.617834,4.005546c-1.717764,2.087155 -3.359183,4.248404 -4.929028,6.483785l19.873575,0c-4.370755,3.606199 -8.43613,7.611745 -12.191353,12.041309l51.365914,0c-1.03543,-8.155146 -2.151977,-15.65164 -3.344868,-22.530641c-18.924033,0.242898 -35.834465,1.589045 -50.77424,4.005546zm77.619074,18.525095l47.586834,0c-5.864255,-5.652237 -12.363129,-10.662228 -19.448905,-15.075305l27.154986,0c-1.350353,-1.486149 -2.734108,-2.939323 -4.165578,-4.359604c-6.446386,-0.584559 -13.27927,-0.90155 -20.503422,-0.938576l-27.436508,-1.276186c-1.135633,6.636103 -2.199692,13.844409 -3.187406,21.64967zm-162.500472,83.815767c5.224865,-8.879667 13.069321,-15.149398 23.194585,-18.306908c-16.352159,44.316141 -17.630939,81.09467 7.534304,104.613309c1.703449,-11.156247 7.61542,-18.817415 17.549822,-23.098753c-2.77228,37.815909 13.045463,68.522275 43.268566,93.724671c-3.697964,-15.915117 1.942028,-28.224036 13.169524,-38.363442c-2.514616,42.286631 56.991591,60.354773 58.303772,92.419682c18.919262,-15.235886 23.461793,-43.538106 20.699056,-78.464114c9.385672,11.983704 22.865347,22.559443 38.873953,32.254253c-9.528819,-40.561716 -8.522018,-72.219054 5.014916,-93.288257c4.208522,13.070466 18.065151,21.970752 35.739034,29.207902c-5.606591,-27.026074 1.598475,-54.060372 14.419674,-81.082315l26.959351,15.688707c8.851256,-51.98144 3.134919,-93.831698 -28.467166,-117.687907c-4.408928,4.404853 -8.440901,9.188475 -12.081607,14.367271l19.873575,0c-9.881914,8.16337 -18.236928,18.368645 -24.864634,30.875131l13.384244,0c-14.748912,17.07192 -24.740573,43.056443 -28.662801,80.370109c-3.922228,-37.313666 -13.913888,-63.298188 -28.662801,-80.370109l13.379473,0c-6.627706,-12.506486 -14.982719,-22.711761 -24.859862,-30.875131l19.868803,0c-3.182635,-4.520145 -6.661107,-8.739746 -10.425873,-12.671199c-14.228812,7.595298 -26.420164,16.787864 -36.349794,27.746504l27.164529,0c-13.112265,8.16337 -24.201386,18.368645 -33.000155,30.875171l19.873575,0c-9.881914,8.16337 -18.236928,18.368645 -24.864634,30.875131l13.384244,0c-14.748912,17.07192 -24.740573,43.056483 -28.662801,80.370149c-3.922228,-37.313666 -13.913888,-63.298229 -28.662801,-80.370149l13.379473,0c-6.627706,-12.506486 -14.982719,-22.711761 -24.859862,-30.875131l19.868803,0c-8.798769,-12.506526 -19.88789,-22.711802 -32.995383,-30.875171l27.154986,0c-10.454502,-11.534975 -23.414077,-21.114493 -38.606745,-28.936201c-4.098776,5.088216 -7.79674,10.71161 -11.070035,16.894892l13.384244,0c-14.748912,17.07188 -24.740573,43.056443 -28.662801,80.370109c-3.922228,-37.313666 -13.913888,-63.298229 -28.662801,-80.370109l13.379473,0c-3.850654,-7.265952 -8.28344,-13.753869 -13.255412,-19.513133c-29.383307,17.796441 -39.279536,46.23044 -31.144015,84.495038z"/>
   </g>
  </g>
 </g>
</svg>